<svg width="25" height="25" viewBox="0 0 25 25" fill="none" xmlns="http://www.w3.org/2000/svg">
<path id="Vector" d="M9.68256 13.1413C9.86098 13.3792 9.94759 13.6735 9.92651 13.9701C9.90543 14.2667 9.77807 14.5457 9.56782 14.756C9.35756 14.9662 9.07851 15.0936 8.78191 15.1147C8.48531 15.1358 8.19106 15.0491 7.95318 14.8707C7.36233 14.3162 6.89142 13.6465 6.5695 12.9029C6.24759 12.1593 6.0815 11.3576 6.0815 10.5473C6.0815 9.73696 6.24759 8.93526 6.5695 8.19165C6.89142 7.44804 7.36233 6.77831 7.95318 6.22379L12.2766 1.77679C13.452 0.637256 15.0248 0 16.6619 0C18.299 0 19.8717 0.637256 21.0471 1.77679C22.1866 2.95216 22.8239 4.52495 22.8239 6.16202C22.8239 7.7991 22.1866 9.37189 21.0471 10.5473L19.1942 12.4002C19.2206 11.3894 19.0529 10.383 18.7001 9.43551L19.3177 8.81787C19.9774 8.09063 20.3428 7.1439 20.3428 6.16202C20.3428 5.18015 19.9774 4.23342 19.3177 3.50618C18.5905 2.84648 17.6438 2.48106 16.6619 2.48106C15.68 2.48106 14.7333 2.84648 14.006 3.50618L9.68256 7.95318C9.33126 8.28776 9.05157 8.69021 8.86046 9.13612C8.66936 9.58203 8.57082 10.0621 8.57082 10.5473C8.57082 11.0324 8.66936 11.5125 8.86046 11.9584C9.05157 12.4043 9.33126 12.8068 9.68256 13.1413ZM25 18.8236V21.2942H21.2942V25H18.8236V21.2942H15.1178V18.8236H18.8236V15.1178H21.2942V18.8236M16.6001 13.5119C16.8142 12.5149 16.7675 11.4794 16.4646 10.5057C16.1616 9.53195 15.6127 8.6528 14.8707 7.95318C14.6328 7.77477 14.3386 7.68815 14.042 7.70923C13.7454 7.73031 13.4663 7.85767 13.2561 8.06793C13.0458 8.27818 12.9185 8.55723 12.8974 8.85383C12.8763 9.15043 12.9629 9.44468 13.1413 9.68256C13.4926 10.0171 13.7723 10.4196 13.9634 10.8655C14.1545 11.3114 14.2531 11.7915 14.2531 12.2766C14.2531 12.7618 14.1545 13.2419 13.9634 13.6878C13.7723 14.1337 13.4926 14.5361 13.1413 14.8707L8.81787 19.3177C8.09063 19.9774 7.1439 20.3428 6.16202 20.3428C5.18015 20.3428 4.23342 19.9774 3.50618 19.3177C2.84648 18.5905 2.48106 17.6438 2.48106 16.6619C2.48106 15.68 2.84648 14.7333 3.50618 14.006L4.12382 13.5119C3.7805 12.5192 3.61328 11.474 3.62971 10.4237L1.77679 12.2766C0.637256 13.452 0 15.0248 0 16.6619C0 18.299 0.637256 19.8717 1.77679 21.0471C2.95216 22.1866 4.52495 22.8239 6.16202 22.8239C7.7991 22.8239 9.37189 22.1866 10.5473 21.0471L12.7708 18.8236C12.9596 17.7041 13.4031 16.6429 14.067 15.7219C14.731 14.801 15.5976 14.0449 16.6001 13.5119Z" fill="url(#paint0_linear_5_43777)"/>
<defs>
<linearGradient id="paint0_linear_5_43777" x1="1.12742" y1="7.21751e-07" x2="23.125" y2="25.9329" gradientUnits="userSpaceOnUse">
<stop stop-color="#00E7FC"/>
<stop offset="1" stop-color="#EC46E5"/>
</linearGradient>
</defs>
</svg>
