<svg width="20" height="16" viewBox="0 0 20 16" fill="none" xmlns="http://www.w3.org/2000/svg">
<g id="&#240;&#159;&#142;&#168; Icon Color">
<path fill-rule="evenodd" clip-rule="evenodd" d="M0.939453 0C0.421686 0 0.00195312 0.413276 0.00195312 0.923077C0.00195312 1.43288 0.421686 1.84615 0.939453 1.84615H19.0645C19.5822 1.84615 20.002 1.43288 20.002 0.923077C20.002 0.413276 19.5822 0 19.0645 0H0.939453ZM10.9395 4.92308C10.4217 4.92308 10.002 5.33635 10.002 5.84615C10.002 6.35596 10.4217 6.76923 10.9395 6.76923H19.0645C19.5822 6.76923 20.002 6.35596 20.002 5.84615C20.002 5.33635 19.5822 4.92308 19.0645 4.92308H10.9395ZM10.002 10.1538C10.002 9.64404 10.4217 9.23077 10.9395 9.23077H19.0645C19.5822 9.23077 20.002 9.64404 20.002 10.1538C20.002 10.6636 19.5822 11.0769 19.0645 11.0769H10.9395C10.4217 11.0769 10.002 10.6636 10.002 10.1538ZM0.939453 14.1538C0.421686 14.1538 0.00195312 14.5671 0.00195312 15.0769C0.00195312 15.5867 0.421686 16 0.939453 16H19.0645C19.5822 16 20.002 15.5867 20.002 15.0769C20.002 14.5671 19.5822 14.1538 19.0645 14.1538H0.939453Z" fill="#F8F8F8"/>
<path fill-rule="evenodd" clip-rule="evenodd" d="M1.25195 4.30769C0.561597 4.30769 0.00195312 4.85873 0.00195312 5.53846V10.4615C0.00195312 11.1413 0.561597 11.6923 1.25195 11.6923H6.25195C6.94231 11.6923 7.50195 11.1413 7.50195 10.4615V5.53846C7.50195 4.85873 6.94231 4.30769 6.25195 4.30769H1.25195Z" fill="#F8F8F8"/>
</g>
</svg>
