<svg width="16" height="20" viewBox="0 0 16 20" fill="none" xmlns="http://www.w3.org/2000/svg">
<path id="Vector" d="M3.35092 20C3.02799 20 2.7571 19.9127 2.53827 19.7382C2.32019 19.5642 2.21115 19.3485 2.21115 19.0909C2.21115 18.8333 2.32019 18.6176 2.53827 18.4436C2.7571 18.2691 3.02799 18.1818 3.35092 18.1818C3.67386 18.1818 3.94474 18.2691 4.16358 18.4436C4.38165 18.6176 4.49069 18.8333 4.49069 19.0909C4.49069 19.3485 4.38165 19.5642 4.16358 19.7382C3.94474 19.9127 3.67386 20 3.35092 20ZM7.91 20C7.58707 20 7.31656 19.9127 7.09848 19.7382C6.87965 19.5642 6.77023 19.3485 6.77023 19.0909C6.77023 18.8333 6.87965 18.6176 7.09848 18.4436C7.31656 18.2691 7.58707 18.1818 7.91 18.1818C8.23294 18.1818 8.50382 18.2691 8.72266 18.4436C8.94073 18.6176 9.04977 18.8333 9.04977 19.0909C9.04977 19.3485 8.94073 19.5642 8.72266 19.7382C8.50382 19.9127 8.23294 20 7.91 20ZM12.4691 20C12.1461 20 11.8756 19.9127 11.6576 19.7382C11.4387 19.5642 11.3293 19.3485 11.3293 19.0909C11.3293 18.8333 11.4387 18.6176 11.6576 18.4436C11.8756 18.2691 12.1461 18.1818 12.4691 18.1818C12.792 18.1818 13.0625 18.2691 13.2806 18.4436C13.4994 18.6176 13.6088 18.8333 13.6088 19.0909C13.6088 19.3485 13.4994 19.5642 13.2806 19.7382C13.0625 19.9127 12.792 20 12.4691 20ZM7.91 10.9091C6.96019 10.9091 6.15286 10.6439 5.48799 10.1136C4.82312 9.58333 4.49069 8.93939 4.49069 8.18182V2.72727C4.49069 1.9697 4.82312 1.32576 5.48799 0.795455C6.15286 0.265152 6.96019 0 7.91 0C8.85981 0 9.66715 0.265152 10.332 0.795455C10.9969 1.32576 11.3293 1.9697 11.3293 2.72727V8.18182C11.3293 8.93939 10.9969 9.58333 10.332 10.1136C9.66715 10.6439 8.85981 10.9091 7.91 10.9091ZM7.91 17.2727C7.58707 17.2727 7.31656 17.1855 7.09848 17.0109C6.87965 16.837 6.77023 16.6212 6.77023 16.3636V14.4545C5.00359 14.2727 3.50289 13.6894 2.26814 12.7045C1.03339 11.7197 0.283043 10.5379 0.0170965 9.15909C-0.039892 8.90152 0.0455912 8.67424 0.273545 8.47727C0.501499 8.2803 0.805437 8.18182 1.18536 8.18182C1.45131 8.18182 1.68876 8.26121 1.89772 8.42C2.10667 8.57939 2.23965 8.77273 2.29664 9C2.54359 10.0606 3.18945 10.947 4.23424 11.6591C5.27903 12.3712 6.50428 12.7273 7.91 12.7273C9.31572 12.7273 10.541 12.3712 11.5858 11.6591C12.6305 10.947 13.2764 10.0606 13.5234 9C13.5804 8.77273 13.7183 8.57939 13.9371 8.42C14.1552 8.26121 14.3972 8.18182 14.6631 8.18182C15.0241 8.18182 15.3185 8.2803 15.5465 8.47727C15.7744 8.67424 15.8599 8.90152 15.8029 9.15909C15.537 10.5379 14.7866 11.7197 13.5519 12.7045C12.3171 13.6894 10.8164 14.2727 9.04977 14.4545V16.3636C9.04977 16.6212 8.94073 16.837 8.72266 17.0109C8.50382 17.1855 8.23294 17.2727 7.91 17.2727ZM7.91 9.09091C8.23294 9.09091 8.50382 9.00364 8.72266 8.82909C8.94073 8.65515 9.04977 8.43939 9.04977 8.18182V2.72727C9.04977 2.4697 8.94073 2.25364 8.72266 2.07909C8.50382 1.90515 8.23294 1.81818 7.91 1.81818C7.58707 1.81818 7.31656 1.90515 7.09848 2.07909C6.87965 2.25364 6.77023 2.4697 6.77023 2.72727V8.18182C6.77023 8.43939 6.87965 8.65515 7.09848 8.82909C7.31656 9.00364 7.58707 9.09091 7.91 9.09091Z" fill="url(#paint0_linear_1405_18073)"/>
<defs>
<linearGradient id="paint0_linear_1405_18073" x1="5.69317e-08" y1="4.24242" x2="5.38601" y2="20.82" gradientUnits="userSpaceOnUse">
<stop stop-color="#00E7FC"/>
<stop offset="1" stop-color="#EC46E5"/>
</linearGradient>
</defs>
</svg>
