<svg width="12" height="11" viewBox="0 0 12 11" fill="none" xmlns="http://www.w3.org/2000/svg">
<path id="Vector" d="M3.28216 7.54541L3.48329 7.20447L3.39016 7.14883H3.28216V7.54621V7.54541ZM3.28216 2.78011V3.17748H3.39016L3.48408 3.12106L3.28216 2.78011ZM7.19529 0.397457H7.5866C7.58662 0.327149 7.56826 0.258096 7.53341 0.197345C7.49856 0.136594 7.44846 0.086321 7.38822 0.0516563C7.32799 0.0169915 7.25978 -0.000823545 7.19054 2.92394e-05C7.12131 0.000882024 7.05355 0.0203721 6.99416 0.0565104L7.19529 0.397457ZM7.19529 9.92807L6.99416 10.269C7.05355 10.3052 7.12131 10.3246 7.19054 10.3255C7.25978 10.3263 7.32799 10.3085 7.38822 10.2739C7.44846 10.2392 7.49856 10.1889 7.53341 10.1282C7.56826 10.0674 7.58662 9.99837 7.5866 9.92807H7.19529ZM9.49621 3.75844L9.21916 3.4779L8.66584 4.03978L8.94289 4.32112L9.49543 3.75844H9.49621ZM11.1554 6.56708L11.4324 6.84763L11.9857 6.28574L11.7087 6.00519L11.1554 6.56708ZM11.7095 4.32112L11.9857 4.03978L11.4324 3.4779L11.1562 3.75844L11.7095 4.32112ZM8.94289 6.00519L8.66584 6.28574L9.21916 6.84763L9.49621 6.56708L8.94289 6.00519ZM3.28216 7.14804H1.71691V7.94279H3.28216V7.14804ZM1.71691 7.14804C1.66549 7.14815 1.61456 7.13794 1.56704 7.11801C1.51951 7.09807 1.47634 7.06881 1.43998 7.03189C1.40362 6.99497 1.3748 6.95112 1.35517 6.90286C1.33554 6.8546 1.32549 6.80288 1.32559 6.75067H0.542969C0.542969 7.41031 1.06811 7.94279 1.71691 7.94279V7.14804ZM1.32559 6.75067V3.57486H0.542969V6.75226H1.32559V6.75067ZM1.32559 3.57406C1.32559 3.35471 1.50012 3.17748 1.71691 3.17748V2.38274C1.06811 2.38274 0.542969 2.91522 0.542969 3.57486H1.32559V3.57406ZM1.71691 3.17748H3.28216V2.38274H1.71691V3.17748ZM3.48329 3.12106L7.39643 0.738404L6.99416 0.0565104L3.08103 2.43916L3.48329 3.12106ZM6.80398 0.397457V9.92807H7.5866V0.397457H6.80398ZM7.39643 9.58712L3.48329 7.20447L3.08103 7.88636L6.99416 10.269L7.39643 9.58712ZM8.94289 4.32112L11.1554 6.56708L11.7087 6.00519L9.49543 3.75844L8.94211 4.32112H8.94289ZM11.1562 3.75844L8.94289 6.00519L9.49621 6.56708L11.7095 4.32112L11.1562 3.75844Z" fill="white"/>
</svg>
